<svg xmlns="http://www.w3.org/2000/svg" width="75.979" height="71.047" viewBox="0 0 75.979 71.047">
  <path id="big-intestines" d="M75.328,35.37a8.845,8.845,0,0,0-1.693-9.326A8.82,8.82,0,0,0,72,16.8q0-.068,0-.136a8.872,8.872,0,0,0-8.862-8.862,8.729,8.729,0,0,0-2.9.491,8.834,8.834,0,0,0-9.968-.365,8.831,8.831,0,0,0-7.164.537,8.839,8.839,0,0,0-8.13.734,8.85,8.85,0,0,0-9.11-.943,8.834,8.834,0,0,0-10.8-.213,8.736,8.736,0,0,0-2.037-.242A8.872,8.872,0,0,0,4.17,16.669a8.767,8.767,0,0,0,.236,2.022A8.848,8.848,0,0,0,2.232,30.537a8.855,8.855,0,0,0,.428,12.2A8.86,8.86,0,1,0,16.316,41.2a8.832,8.832,0,0,0,.023-9.532,8.837,8.837,0,0,0,2-7.865,8.833,8.833,0,0,0,5.762-.616,8.832,8.832,0,0,0,10.308.556,8.857,8.857,0,0,0,9.529.734,8.889,8.889,0,0,0,3.365.663,8.748,8.748,0,0,0,4.719-1.364,8.817,8.817,0,0,0,4.645.357,8.815,8.815,0,0,0,2.233,4.6,8.834,8.834,0,0,0-.649,3.316,8.733,8.733,0,0,0,.65,3.323,8.8,8.8,0,0,0-.147,6.254A8.788,8.788,0,0,0,57.6,45.992a8.883,8.883,0,0,0,.083,1.207,8.913,8.913,0,0,0-1.63.973A8.843,8.843,0,0,0,46.036,53.1a7.565,7.565,0,0,0-6.452,8.7,6.76,6.76,0,0,0-.468,9.056,4.92,4.92,0,1,0,9.542.979,6.779,6.779,0,0,0,2.483-4.9,7.567,7.567,0,0,0,1.588-1.371,8.8,8.8,0,0,0,6.682-1.682,8.836,8.836,0,0,0,10.219-5.414,5.282,5.282,0,0,0,3.76-6.955,8.819,8.819,0,0,0,1.433-8.451,8.827,8.827,0,0,0,.5-7.692Z" transform="translate(0 -6.308)" fill="#fff"/>
</svg>
