<svg xmlns="http://www.w3.org/2000/svg" width="69.406" height="77.445" viewBox="0 0 69.406 77.445">
  <path id="brain-cenit-view" d="M79.036,46.783a6.017,6.017,0,0,1-2.891,6.537,6.026,6.026,0,0,1-3.481,8,5.969,5.969,0,0,1,.109,1.135,6.031,6.031,0,0,1-3.987,5.666,21.335,21.335,0,0,1-4.258-4.7c-.02-.046-.034-.093-.058-.137-.014-.026-.045-.078-.085-.141a2.373,2.373,0,0,1-.263-.894c-.083-2.157,1.908-4.615,2.679-5.378a1.538,1.538,0,0,0-2.153-2.2,13.508,13.508,0,0,0-3.441,5.962,9.067,9.067,0,0,0-1.957-.55,8.754,8.754,0,0,0-6.8,2.116,1.538,1.538,0,0,0,2.077,2.268,5.68,5.68,0,0,1,4.222-1.35,4.358,4.358,0,0,1,3.044,1.67c.025.043.054.083.082.123a22.534,22.534,0,0,0,4.752,5.415,6.012,6.012,0,0,1-7.482,3.63,6.02,6.02,0,0,1-11.484-2.529V42.968a14.677,14.677,0,0,0,4.078,1.6,13.647,13.647,0,0,1,1.4,4.73,1.538,1.538,0,1,0,3.075,0A14.619,14.619,0,0,0,54.9,44.122a11.512,11.512,0,0,0,3.1-2.234,1.538,1.538,0,0,0-2.244-2.1,8.013,8.013,0,0,1-2.775,1.808.591.591,0,0,1-.125.024,1.543,1.543,0,0,0-.242,0,13.9,13.9,0,0,1-4.7-2.069,1.518,1.518,0,0,0-.258-.132V28.11c1.966-.279,4.835-1.111,6.391-3.556A1.538,1.538,0,1,0,51.454,22.9a5.66,5.66,0,0,1-3.8,2.1V6.887a1.532,1.532,0,0,1,.028-.293q-.028-.288-.028-.572A6.02,6.02,0,0,1,58.151,1.99h.015a6.008,6.008,0,0,1,4.91,2.54,30.646,30.646,0,0,0-3.529,4.145,9.046,9.046,0,0,0-4.573-.085,1.538,1.538,0,0,0,.746,2.984,5.919,5.919,0,0,1,2.8.012,7.405,7.405,0,0,0,.893,2.915,10.287,10.287,0,0,1,1.222,4.97,1.537,1.537,0,0,0,1.508,1.567h.03a1.538,1.538,0,0,0,1.537-1.508A13.254,13.254,0,0,0,62.2,13.2c-.542-1.164-.715-1.611-.532-2.049a20.982,20.982,0,0,1,3.765-4.632,6.031,6.031,0,0,1,4.008,5.545,6.026,6.026,0,0,1,5.415,8.473,6.024,6.024,0,0,1,3.437,6.686,19.879,19.879,0,0,1-5.744,1.5c-1.332,0-2.43-1.926-2.708-2.6a1.538,1.538,0,0,0-2.85,1.156,9.42,9.42,0,0,0,2.221,3.154c-.025.023-.052.045-.076.068a13.2,13.2,0,0,0-2.066,2.813,1.538,1.538,0,1,0,2.693,1.486,10.361,10.361,0,0,1,1.466-2.045A6.485,6.485,0,0,1,72.87,31.8a21.362,21.362,0,0,0,5.74-1.4,6,6,0,0,1-.512,6,5.991,5.991,0,0,1,.921,7.31,35.329,35.329,0,0,1-7.4-.89,1.538,1.538,0,1,0-.823,2.963A38.415,38.415,0,0,0,79.036,46.783ZM42.66,42.969a14.679,14.679,0,0,1-4.077,1.6,13.709,13.709,0,0,0-1.4,4.73,1.538,1.538,0,1,1-3.075,0,14.619,14.619,0,0,1,1.308-5.172,11.512,11.512,0,0,1-3.1-2.234,1.538,1.538,0,0,1,2.244-2.1,8.025,8.025,0,0,0,2.775,1.808.6.6,0,0,0,.124.024,1.531,1.531,0,0,1,.245,0,13.856,13.856,0,0,0,4.7-2.068,1.558,1.558,0,0,1,.259-.133v-11.3c-1.966-.279-4.835-1.111-6.391-3.556A1.538,1.538,0,0,1,38.863,22.9a5.661,5.661,0,0,0,3.8,2.1V6.887a1.531,1.531,0,0,0-.028-.293q.028-.288.028-.572A6.02,6.02,0,0,0,32.167,1.99h-.015a6.008,6.008,0,0,0-4.91,2.54,30.64,30.64,0,0,1,3.529,4.145,9.039,9.039,0,0,1,4.573-.085,1.538,1.538,0,1,1-.746,2.984,5.907,5.907,0,0,0-2.8.008,7.4,7.4,0,0,1-.893,2.919,10.287,10.287,0,0,0-1.222,4.97,1.537,1.537,0,0,1-1.508,1.567h-.03a1.538,1.538,0,0,1-1.537-1.508A13.254,13.254,0,0,1,28.117,13.2c.542-1.164.715-1.611.532-2.049a20.974,20.974,0,0,0-3.765-4.632,6.031,6.031,0,0,0-4.009,5.545A6.026,6.026,0,0,0,15.46,20.54a6.024,6.024,0,0,0-3.437,6.685,19.922,19.922,0,0,0,5.744,1.5c1.332,0,2.43-1.926,2.71-2.6a1.538,1.538,0,0,1,2.848,1.161A9.42,9.42,0,0,1,21.1,30.441c.025.023.052.045.077.068a13.214,13.214,0,0,1,2.066,2.813,1.538,1.538,0,1,1-2.693,1.486,10.208,10.208,0,0,0-1.466-2.045,6.48,6.48,0,0,0-1.639-.967,21.362,21.362,0,0,1-5.74-1.4,6,6,0,0,0,.512,6A5.991,5.991,0,0,0,11.3,43.7a35.33,35.33,0,0,0,7.4-.89,1.538,1.538,0,1,1,.823,2.963,38.374,38.374,0,0,1-8.244,1A6.017,6.017,0,0,0,14.17,53.32a6.026,6.026,0,0,0,3.481,8,5.967,5.967,0,0,0-.109,1.135,6.031,6.031,0,0,0,3.986,5.665,21.359,21.359,0,0,0,4.263-4.711c.019-.043.032-.087.055-.128.014-.026.044-.076.082-.137a2.377,2.377,0,0,0,.265-.9c.1-2.579-2.651-5.351-2.679-5.378a1.538,1.538,0,0,1,2.153-2.2,13.508,13.508,0,0,1,3.441,5.962,9.067,9.067,0,0,1,1.957-.55,8.745,8.745,0,0,1,6.8,2.116,1.538,1.538,0,1,1-2.084,2.262,5.684,5.684,0,0,0-4.216-1.344,4.339,4.339,0,0,0-3.045,1.673,1.5,1.5,0,0,1-.1.15,22.63,22.63,0,0,1-4.736,5.385,6.012,6.012,0,0,0,7.482,3.63,6.02,6.02,0,0,0,11.484-2.529V42.969Z" transform="translate(-10.456)" fill=""/>
</svg>
