<svg xmlns="http://www.w3.org/2000/svg" width="21.512" height="22.281" viewBox="0 0 21.512 22.281">
  <g id="caduceus" transform="translate(-8.007)">
    <g id="Group_432" data-name="Group 432" transform="translate(13.48 8.492)">
      <g id="Group_431" data-name="Group 431">
        <path id="Path_176" data-name="Path 176" d="M123.565,179.737a2.194,2.194,0,0,0,.831-.376,1.7,1.7,0,0,0,.77-2.064c-.383-.628-1.432-.586-2.238.129a2.518,2.518,0,0,0-.935,2.091,2.826,2.826,0,0,0,1.174,2.239,5.808,5.808,0,0,1,1.689-.89l.009,0A2.264,2.264,0,0,1,123.565,179.737Zm-.124-1.777a.384.384,0,1,1,.384.39A.386.386,0,0,1,123.44,177.96Z" transform="translate(-121.993 -176.855)" fill="#0c50b2"/>
      </g>
    </g>
    <g id="Group_434" data-name="Group 434" transform="translate(14.543 8.492)">
      <g id="Group_433" data-name="Group 433">
        <path id="Path_177" data-name="Path 177" d="M153.636,179.516a2.525,2.525,0,0,0-.937-2.092c-.805-.715-1.855-.758-2.238-.129a1.7,1.7,0,0,0,.77,2.064,2.2,2.2,0,0,0,.831.376,1.755,1.755,0,0,1-.827.886c-.607.363-.936.407-4.822,1.7a2.916,2.916,0,0,0-2.294,2.6,2.386,2.386,0,0,0,.989,1.894,4.817,4.817,0,0,1,1.342-.955c-.608-.307-.8-.54-.8-.939,0-.658,1.316-1.034,1.922-1.235v1.666l1.537-.685v-.98c.608.2,1.92.577,1.92,1.234,0,1.093-3.129,1.737-4.46,2.655a2.03,2.03,0,0,0-.993,1.686,1.445,1.445,0,0,0,.719,1.334.223.223,0,0,0,.333-.285c-.446-.892.028-1.338.946-1.723v1.289a.768.768,0,1,0,1.537,0v-1.288c.883.37,1.438.894.944,1.723a.223.223,0,0,0,.332.285,1.458,1.458,0,0,0,.7-1.324,2.111,2.111,0,0,0-.988-1.691c1.308-.473,2.465-1.268,2.465-2.659a2.675,2.675,0,0,0-1.666-2.336,5.37,5.37,0,0,0,1.071-.493A2.975,2.975,0,0,0,153.636,179.516Zm-1.833-1.168a.39.39,0,1,1,.384-.39A.387.387,0,0,1,151.8,178.349Z" transform="translate(-144.119 -176.854)" fill="#0c50b2"/>
      </g>
    </g>
    <g id="Group_436" data-name="Group 436" transform="translate(17.227)">
      <g id="Group_435" data-name="Group 435">
        <path id="Path_178" data-name="Path 178" d="M212.3,1.538h-5.262a3.385,3.385,0,0,0-2.473,1.123c-.724.724-1.1,2.333-2.253,2.333V2.86a1.537,1.537,0,1,0-1.537,0v9.156l1.537-.492V7.676a1.708,1.708,0,0,0,.767-.772,1.575,1.575,0,0,0,1.342.781,1.53,1.53,0,0,0,1.333-.786,2.571,2.571,0,0,0,3.473.017l-1.306-1.306.6.248a2.305,2.305,0,0,0,3.012-1.247l-1.855-.768A2.332,2.332,0,0,0,212.3,1.538Z" transform="translate(-200.007)" fill="#ff389f"/>
      </g>
    </g>
    <g id="Group_438" data-name="Group 438" transform="translate(8.007 1.538)">
      <g id="Group_437" data-name="Group 437" transform="translate(0)">
        <path id="Path_179" data-name="Path 179" d="M15.742,33.154a3.385,3.385,0,0,0-2.473-1.123H8.007a2.331,2.331,0,0,0,2.623,2.3L8.775,35.1a2.305,2.305,0,0,0,3.012,1.247l.6-.248L11.08,37.409a2.571,2.571,0,0,0,3.473-.017,1.53,1.53,0,0,0,1.333.786H15.9a1.4,1.4,0,0,0,1.325-1.437V35.194C16.622,34.7,16.275,33.687,15.742,33.154Z" transform="translate(-8.007 -32.031)" fill="#ff389f"/>
      </g>
    </g>
  </g>
</svg>
