<svg xmlns="http://www.w3.org/2000/svg" width="21.686" height="22" viewBox="0 0 21.686 22">
  <g id="icon" transform="translate(-0.208)">
    <path id="Path_108" data-name="Path 108" d="M21.212,4.643A1.522,1.522,0,0,0,22.738,3.12V1.526a1.526,1.526,0,1,0-3.051,0V3.121A1.522,1.522,0,0,0,21.212,4.643Z" transform="translate(-4.763)" fill="#ff389f"/>
    <path id="Path_109" data-name="Path 109" d="M21.87,3.482H18.8v.776a2.323,2.323,0,1,1-4.645,0V3.482h-6.2v.776a2.323,2.323,0,1,1-4.647,0V3.482l-3.1-.039v19.4H20.346l1.548,0ZM20.344,21.3H1.758V8.9H20.346V21.3Z" transform="translate(0 -0.842)" fill="#0c50b2"/>
    <path id="Path_110" data-name="Path 110" d="M6.861,4.643A1.523,1.523,0,0,0,8.387,3.12V1.526a1.526,1.526,0,1,0-3.051,0V3.121A1.52,1.52,0,0,0,6.861,4.643Z" transform="translate(-1.254 0)" fill="#ff389f"/>
    <rect id="Rectangle_43" data-name="Rectangle 43" width="2.441" height="2.155" transform="translate(7.959 9.725)" fill="#ff389f"/>
    <rect id="Rectangle_44" data-name="Rectangle 44" width="2.443" height="2.155" transform="translate(11.906 9.725)" fill="#ff389f"/>
    <rect id="Rectangle_45" data-name="Rectangle 45" width="2.441" height="2.155" transform="translate(15.566 9.725)" fill="#ff389f"/>
    <rect id="Rectangle_46" data-name="Rectangle 46" width="2.441" height="2.153" transform="translate(7.959 13.303)" fill="#ff389f"/>
    <rect id="Rectangle_47" data-name="Rectangle 47" width="2.443" height="2.153" transform="translate(11.906 13.303)" fill="#ff389f"/>
    <rect id="Rectangle_48" data-name="Rectangle 48" width="2.441" height="2.153" transform="translate(15.566 13.303)" fill="#ff389f"/>
    <rect id="Rectangle_49" data-name="Rectangle 49" width="2.441" height="2.153" transform="translate(7.959 16.952)" fill="#ff389f"/>
    <rect id="Rectangle_50" data-name="Rectangle 50" width="2.439" height="2.153" transform="translate(4.082 13.303)" fill="#ff389f"/>
    <rect id="Rectangle_51" data-name="Rectangle 51" width="2.439" height="2.153" transform="translate(4.082 16.952)" fill="#ff389f"/>
    <rect id="Rectangle_52" data-name="Rectangle 52" width="2.443" height="2.153" transform="translate(11.906 16.952)" fill="#ff389f"/>
    <rect id="Rectangle_53" data-name="Rectangle 53" width="2.441" height="2.153" transform="translate(15.566 16.952)" fill="#ff389f"/>
  </g>
</svg>
