<svg xmlns="http://www.w3.org/2000/svg" width="24.987" height="24.987" viewBox="0 0 24.987 24.987">
  <g id="cost" transform="translate(0)">
    <path id="Path_85" data-name="Path 85" d="M9.566,169.569a17.351,17.351,0,0,0,5.172-.629,2.509,2.509,0,0,1,.727-2.3,2.549,2.549,0,0,1,0-3.66,2.549,2.549,0,0,1,0-3.66,2.545,2.545,0,0,1,.279-3.891,10.381,10.381,0,0,0-1.389-1.07,1.434,1.434,0,0,0,.335-.9A1.464,1.464,0,0,0,13.226,152H5.905a1.464,1.464,0,0,0-1.464,1.464,1.435,1.435,0,0,0,.333.893A10.477,10.477,0,0,0,0,162.98c0,5.906,5.48,6.588,9.565,6.588Zm-.008-7.106a2.19,2.19,0,0,1-.724-4.26v-1.079a.732.732,0,0,1,1.464,0v1.084a2.193,2.193,0,0,1,1.456,2.059.732.732,0,0,1-1.464,0,.732.732,0,1,0-.732.732,2.191,2.191,0,0,1,.74,4.255v.655a.732.732,0,1,1-1.464,0v-.65a2.192,2.192,0,0,1-1.472-2.064.732.732,0,1,1,1.464,0,.732.732,0,1,0,.732-.732Zm0,0" transform="translate(0 -144.582)" fill="#ff389f"/>
    <path id="Path_86" data-name="Path 86" d="M338.735,467H332.1a1.1,1.1,0,0,0,0,2.2h6.637a1.1,1.1,0,0,0,0-2.2Zm0,0" transform="translate(-314.846 -444.209)" fill="#ff389f"/>
    <path id="Path_87" data-name="Path 87" d="M338.735,392H332.1a1.1,1.1,0,0,0,0,2.2h6.637a1.1,1.1,0,0,0,0-2.2Zm0,0" transform="translate(-314.846 -372.87)" fill="#ff389f"/>
    <path id="Path_88" data-name="Path 88" d="M338.735,317H332.1a1.1,1.1,0,0,0,0,2.2h6.637a1.1,1.1,0,0,0,0-2.2Zm0,0" transform="translate(-314.846 -301.53)" fill="#ff389f"/>
    <path id="Path_89" data-name="Path 89" d="M338.735,242H332.1a1.1,1.1,0,0,0,0,2.2h6.637a1.1,1.1,0,0,0,0-2.2Zm0,0" transform="translate(-314.846 -230.19)" fill="#ff389f"/>
    <path id="Path_90" data-name="Path 90" d="M98.185,1.464a2.19,2.19,0,0,0-4.132,0H91.732a.731.731,0,0,0-.694.964L92.18,5.954h7.887l1.143-3.526a.731.731,0,0,0-.694-.964Zm0,0" transform="translate(-86.558)" fill="#ff389f"/>
  </g>
</svg>
