<svg xmlns="http://www.w3.org/2000/svg" width="23.845" height="23.845" viewBox="0 0 23.845 23.845">
  <g id="cost" transform="translate(0)">
    <path id="Path_85" data-name="Path 85" d="M9.129,168.766a16.559,16.559,0,0,0,4.935-.6,2.394,2.394,0,0,1,.694-2.194,2.432,2.432,0,0,1,0-3.493,2.432,2.432,0,0,1,0-3.493,2.428,2.428,0,0,1,.267-3.713,9.908,9.908,0,0,0-1.325-1.021,1.369,1.369,0,0,0,.319-.854,1.4,1.4,0,0,0-1.4-1.4H5.636a1.4,1.4,0,0,0-1.4,1.4,1.369,1.369,0,0,0,.318.852A10,10,0,0,0,0,162.479c0,5.636,5.229,6.287,9.128,6.287Zm-.007-6.781a2.09,2.09,0,0,1-.691-4.065v-1.03a.7.7,0,0,1,1.4,0v1.034a2.092,2.092,0,0,1,1.39,1.965.7.7,0,0,1-1.4,0,.7.7,0,1,0-.7.7,2.091,2.091,0,0,1,.706,4.061v.625a.7.7,0,0,1-1.4,0v-.62a2.092,2.092,0,0,1-1.4-1.969.7.7,0,1,1,1.4,0,.7.7,0,1,0,.7-.7Zm0,0" transform="translate(0 -144.921)" fill="#c4cfdf"/>
    <path id="Path_86" data-name="Path 86" d="M338.382,467h-6.334a1.048,1.048,0,0,0,0,2.1h6.334a1.048,1.048,0,0,0,0-2.1Zm0,0" transform="translate(-315.584 -445.25)" fill="#c4cfdf"/>
    <path id="Path_87" data-name="Path 87" d="M338.382,392h-6.334a1.048,1.048,0,0,0,0,2.1h6.334a1.048,1.048,0,0,0,0-2.1Zm0,0" transform="translate(-315.584 -373.743)" fill="#c4cfdf"/>
    <path id="Path_88" data-name="Path 88" d="M338.382,317h-6.334a1.048,1.048,0,0,0,0,2.1h6.334a1.048,1.048,0,0,0,0-2.1Zm0,0" transform="translate(-315.584 -302.236)" fill="#c4cfdf"/>
    <path id="Path_89" data-name="Path 89" d="M338.382,242h-6.334a1.048,1.048,0,0,0,0,2.1h6.334a1.048,1.048,0,0,0,0-2.1Zm0,0" transform="translate(-315.584 -230.729)" fill="#c4cfdf"/>
    <path id="Path_90" data-name="Path 90" d="M97.857,1.4a2.09,2.09,0,0,0-3.944,0H91.7a.7.7,0,0,0-.662.92l1.091,3.365h7.527l1.09-3.365a.7.7,0,0,0-.662-.92Zm0,0" transform="translate(-86.761)" fill="#c4cfdf"/>
  </g>
</svg>
