<svg xmlns="http://www.w3.org/2000/svg" width="23.845" height="15.886" viewBox="0 0 23.845 15.886">
  <g id="credit-card" transform="translate(0 -85.334)">
    <path id="Path_100" data-name="Path 100" d="M0,213.227V219.4a3.218,3.218,0,0,0,3.218,3.218h17.41a3.218,3.218,0,0,0,3.218-3.218v-6.171a.56.56,0,0,0-.56-.56H.56A.56.56,0,0,0,0,213.227Zm5.954,3.917H4.461a.979.979,0,1,1,0-1.959H5.954a.979.979,0,1,1,0,1.959Z" transform="translate(0 -121.395)" fill="#0c50b2"/>
    <path id="Path_101" data-name="Path 101" d="M23.845,88.754v-.2a3.218,3.218,0,0,0-3.218-3.218H3.218A3.218,3.218,0,0,0,0,88.552v.2a.56.56,0,0,0,.56.56H23.286A.56.56,0,0,0,23.845,88.754Z" transform="translate(0)" fill="#ff389f"/>
  </g>
</svg>
