<svg id="doctor_3_" data-name="doctor (3)" xmlns="http://www.w3.org/2000/svg" width="27.523" height="29.902" viewBox="0 0 27.523 29.902">
  <g id="Group_3" data-name="Group 3">
    <path id="Path_13" data-name="Path 13" d="M46.93,2.754,43.562,1.579V1.148a1.149,1.149,0,0,0-2.3,0V4.163a1.148,1.148,0,0,0,2.3,0V4.012l2.03.708v.957a8.094,8.094,0,0,1-16.188,0V4.7l2.02-.7v.175a1.148,1.148,0,0,0,2.3,0V1.158a1.148,1.148,0,0,0-2.3,0v.406L27.878,2.8l-.025.01-.068.028-.043.02-.055.029-.048.029-.043.029-.051.038-.035.029-.049.044-.032.032-.043.047-.032.038-.034.046-.032.047-.026.043q-.016.027-.03.055l-.02.042c-.009.02-.018.039-.025.06s-.011.029-.016.044-.013.04-.019.06-.009.034-.013.051-.008.036-.012.055-.007.042-.01.062,0,.031-.005.046,0,.049,0,.073c0,.009,0,.018,0,.027V5.677A10.405,10.405,0,0,0,36.37,16.006V22.2a5.407,5.407,0,0,1-10.75.829,4.037,4.037,0,1,0-2.312.037A7.7,7.7,0,0,0,38.667,22.2V16A10.405,10.405,0,0,0,47.889,5.677V3.885A1.148,1.148,0,0,0,46.93,2.754Z" transform="translate(-20.366)" fill="#0c50b2"/>
  </g>
</svg>
