<svg id="doctor_3_" data-name="doctor (3)" xmlns="http://www.w3.org/2000/svg" width="22.999" height="24.987" viewBox="0 0 22.999 24.987">
  <g id="Group_3" data-name="Group 3">
    <path id="Path_13" data-name="Path 13" d="M42.563,2.3,39.749,1.32V.96a.96.96,0,0,0-1.919,0V3.478a.96.96,0,1,0,1.919,0V3.352l1.7.592v.8a6.763,6.763,0,0,1-13.526,0V3.928l1.688-.589v.146a.96.96,0,0,0,1.919,0V.968a.96.96,0,0,0-1.919,0v.339L26.643,2.341l-.021.008-.057.023-.036.017-.046.024-.04.024-.036.024-.043.032-.03.024-.041.037-.027.027-.036.039-.026.032-.029.038-.026.039-.022.036-.025.046-.017.035c-.008.016-.015.033-.021.05l-.013.037c-.006.016-.011.033-.016.05s-.008.028-.011.043-.007.03-.01.046-.006.035-.008.052,0,.026,0,.039,0,.041,0,.061,0,.015,0,.022v1.5a8.7,8.7,0,0,0,7.739,8.631v5.174a4.518,4.518,0,0,1-8.982.693,3.373,3.373,0,1,0-1.932.031,6.437,6.437,0,0,0,12.834-.724V13.371a8.7,8.7,0,0,0,7.706-8.627v-1.5A.959.959,0,0,0,42.563,2.3Z" transform="translate(-20.366)" fill="#ff389f"/>
  </g>
</svg>
