<svg xmlns="http://www.w3.org/2000/svg"  viewBox="0 0 25.571 29.597">
  <g id="doctor_1_" data-name="doctor (1)" transform="translate(-34.007)">
    <g id="Group_263" data-name="Group 263" transform="translate(41.01)">
      <g id="Group_262" data-name="Group 262" transform="translate(0)">
        <path id="Path_55" data-name="Path 55" d="M158.087,0A5.79,5.79,0,0,0,152.3,5.784v3a5.783,5.783,0,1,0,11.566,0v-3A5.79,5.79,0,0,0,158.087,0Z" transform="translate(-152.304)" fill="#0c50b2"/>
      </g>
    </g>
    <g id="Group_265" data-name="Group 265" transform="translate(34.007 15.503)">
      <g id="Group_264" data-name="Group 264" transform="translate(0)">
        <path id="Path_56" data-name="Path 56" d="M59.546,268.494a14.669,14.669,0,0,0-8.335-6.588.23.23,0,0,0-.231.056,24.15,24.15,0,0,1-4.184,3.181,30.048,30.048,0,0,1-4.193-3.181.231.231,0,0,0-.231-.056,14.665,14.665,0,0,0-8.334,6.588.232.232,0,0,0,0,.234,14.83,14.83,0,0,0,25.507,0A.231.231,0,0,0,59.546,268.494Zm-4.888,1.725a.242.242,0,0,1-.249.225H52.843a.27.27,0,0,0-.267.237v1.62a.2.2,0,0,1-.2.225H50.973a.241.241,0,0,1-.248-.225v-1.62a.224.224,0,0,0-.215-.237H48.876a.228.228,0,0,1-.233-.225v-1.395a.233.233,0,0,1,.233-.231H50.51a.218.218,0,0,0,.215-.232V266.74a.244.244,0,0,1,.248-.228h1.392a.213.213,0,0,1,.211.228v1.626a.246.246,0,0,0,.251.227h1.582a.251.251,0,0,1,.249.236v1.39Z" transform="translate(-34.007 -261.896)" fill="#0c50b2"/>
      </g>
    </g>
  </g>
</svg>
