<svg xmlns="http://www.w3.org/2000/svg" width="20.043" height="15.032" viewBox="0 0 20.043 15.032">
  <g id="envelope" transform="translate(0 -64)">
    <g id="Group_396" data-name="Group 396" transform="translate(0 64)">
      <g id="Group_395" data-name="Group 395">
        <path id="Path_106" data-name="Path 106" d="M7.061,65.22c2.751,2.33,7.578,6.428,9,7.706a.838.838,0,0,0,1.212,0c1.42-1.279,6.247-5.378,9-7.708a.417.417,0,0,0,.059-.576A1.658,1.658,0,0,0,25.016,64H8.313A1.658,1.658,0,0,0,7,64.643.417.417,0,0,0,7.061,65.22Z" transform="translate(-6.643 -64)" fill="#ff389f"/>
        <path id="Path_107" data-name="Path 107" d="M19.8,126.451a.416.416,0,0,0-.445.06c-3.051,2.586-6.944,5.9-8.169,7a1.691,1.691,0,0,1-2.331,0c-1.306-1.176-5.678-4.893-8.168-7a.418.418,0,0,0-.688.318v10.5A1.672,1.672,0,0,0,1.67,139h16.7a1.672,1.672,0,0,0,1.67-1.67v-10.5A.417.417,0,0,0,19.8,126.451Z" transform="translate(0 -123.968)" fill="#ff389f"/>
      </g>
    </g>
  </g>
</svg>
