<svg xmlns="http://www.w3.org/2000/svg" width="52.504" height="77.08" viewBox="0 0 52.504 77.08">
  <path id="heart-beating" d="M77.754,63.522c-2.628,4.92-5.437,8.836-7.566,10.661a11.268,11.268,0,0,1-7.472,2.9c-5.474,0-11.867-3.91-19.542-11.952A37.3,37.3,0,0,1,33.141,43.011c-.7-6.783.464-13.483,2.956-17.067a1.46,1.46,0,0,1,.093-.12c.081-.094.312-.361.633-.723,5,1.213,12.934,4,18.006,10.052A49.026,49.026,0,0,1,63,49.769c1.364,3.446,2.542,6.421,4.729,8.607C70.656,61.306,74.853,62.8,77.754,63.522ZM57.118,33.236A47.571,47.571,0,0,1,64.736,46.1a23.75,23.75,0,0,0,11.925-6.476c3.421-3.536,5.274-9.678,6.209-14.023A10.577,10.577,0,0,0,77.5,21.477,8.578,8.578,0,0,1,76.5,21.03c-.72-.42-1.217-3.765-.278-8.952a15.183,15.183,0,0,1,.848-3.3,1.492,1.492,0,0,0-1.012-2.153l-4.1-.871a1.491,1.491,0,0,0-1.761,1.113c-.981,4.11-2.955,11.167-4.078,12.611-.107.137-.315.367-.51.367-.423,0-1.243-.829-1.3-2.009-.1-2.063.682-12.409.991-16.221A1.491,1.491,0,0,0,63.807,0H60.326a1.492,1.492,0,0,0-1.489,1.39c-.008.113-.78,11.321-1.484,14.957C57.061,17.858,56.453,21,55.5,21a1.775,1.775,0,0,1-.714-.2c-1.731-.8-3.065-6.8-3.568-9.065A33.144,33.144,0,0,1,50.5,5.471a1.492,1.492,0,0,0-1.874-1.442L44.4,5.148a1.493,1.493,0,0,0-1.065,1.81c.01.038.972,3.847,1.62,7.308a5.313,5.313,0,0,1-2.276,5.413c-.4.268-.789.529-1.127.763a19.5,19.5,0,0,0-2.4,2.155C44.527,24.081,52,27.131,57.118,33.236ZM78.806,41.7a26.478,26.478,0,0,1-12.937,7.216c1.248,3.149,2.263,5.648,3.968,7.353,2.667,2.667,6.781,3.949,9.309,4.517,3.527-7.3,6.4-16.184,6.3-23.751a32.613,32.613,0,0,0-.7-6.7C83.551,34.325,81.683,38.724,78.806,41.7Z" transform="translate(-32.942)" fill=""/>
</svg>
