<svg xmlns="http://www.w3.org/2000/svg" width="23.539" height="23.88" viewBox="0 0 23.539 23.88">
  <g id="icon" transform="translate(-0.208)">
    <path id="Path_108" data-name="Path 108" d="M21.343,5.04A1.652,1.652,0,0,0,23,3.387V1.656a1.656,1.656,0,1,0-3.312,0V3.388A1.652,1.652,0,0,0,21.343,5.04Z" transform="translate(-3.505)" fill="#ff389f"/>
    <path id="Path_109" data-name="Path 109" d="M23.722,3.485H20.388v.842a2.521,2.521,0,1,1-5.042,0V3.485H8.617v.842a2.522,2.522,0,1,1-5.044,0V3.485L.208,3.443V24.5H22.067l1.68,0ZM22.065,22.823H1.891V9.371H22.067V22.823Z" transform="translate(0 -0.62)" fill="#ff389f"/>
    <path id="Path_110" data-name="Path 110" d="M6.991,5.04A1.653,1.653,0,0,0,8.648,3.387V1.656a1.656,1.656,0,1,0-3.312,0V3.388A1.65,1.65,0,0,0,6.991,5.04Z" transform="translate(-0.923)" fill="#ff389f"/>
    <rect id="Rectangle_43" data-name="Rectangle 43" width="2.65" height="2.339" transform="translate(8.622 10.556)" fill="#ff389f"/>
    <rect id="Rectangle_44" data-name="Rectangle 44" width="2.652" height="2.339" transform="translate(12.905 10.556)" fill="#ff389f"/>
    <rect id="Rectangle_45" data-name="Rectangle 45" width="2.65" height="2.339" transform="translate(16.879 10.556)" fill="#ff389f"/>
    <rect id="Rectangle_46" data-name="Rectangle 46" width="2.65" height="2.337" transform="translate(8.622 14.44)" fill="#ff389f"/>
    <rect id="Rectangle_47" data-name="Rectangle 47" width="2.652" height="2.337" transform="translate(12.905 14.44)" fill="#ff389f"/>
    <rect id="Rectangle_48" data-name="Rectangle 48" width="2.65" height="2.337" transform="translate(16.879 14.44)" fill="#ff389f"/>
    <rect id="Rectangle_49" data-name="Rectangle 49" width="2.65" height="2.337" transform="translate(8.622 18.401)" fill="#ff389f"/>
    <rect id="Rectangle_50" data-name="Rectangle 50" width="2.648" height="2.337" transform="translate(4.413 14.44)" fill="#ff389f"/>
    <rect id="Rectangle_51" data-name="Rectangle 51" width="2.648" height="2.337" transform="translate(4.413 18.401)" fill="#ff389f"/>
    <rect id="Rectangle_52" data-name="Rectangle 52" width="2.652" height="2.337" transform="translate(12.905 18.401)" fill="#ff389f"/>
    <rect id="Rectangle_53" data-name="Rectangle 53" width="2.65" height="2.337" transform="translate(16.879 18.401)" fill="#ff389f"/>
  </g>
</svg>
