<svg xmlns="http://www.w3.org/2000/svg" width="31.302" height="31.302" viewBox="0 0 31.302 31.302">
  <g id="info_1_" data-name="info (1)" transform="translate(0.5 0.5)">
    <path id="Path_91" data-name="Path 91" d="M237.193,107.931a1.263,1.263,0,1,1-1.263-1.263A1.263,1.263,0,0,1,237.193,107.931Zm0,0" transform="translate(-220.779 -100.355)" fill="#ff389f" stroke="#ff389f" stroke-width="1"/>
    <path id="Path_92" data-name="Path 92" d="M205.824,204.626a.947.947,0,0,1-.947-.947v-9.785h-1.263a.947.947,0,1,1,0-1.894h2.209a.947.947,0,0,1,.947.947v10.732A.947.947,0,0,1,205.824,204.626Zm0,0" transform="translate(-190.673 -180.637)" fill="#ff389f" stroke="#ff389f" stroke-width="1"/>
    <path id="Path_93" data-name="Path 93" d="M15.151,30.3A15.151,15.151,0,1,1,30.3,15.151,15.168,15.168,0,0,1,15.151,30.3Zm0-28.409A13.257,13.257,0,1,0,28.409,15.151,13.272,13.272,0,0,0,15.151,1.894Zm0,0" fill="#0c50b2" stroke="#0c50b2" stroke-width="1"/>
    <path id="Path_94" data-name="Path 94" d="M198.629,375.226h-5.682a.947.947,0,0,1,0-1.894h5.682a.947.947,0,1,1,0,1.894Zm0,0" transform="translate(-180.637 -351.237)" fill="#ff389f" stroke="#ff389f" stroke-width="1"/>
  </g>
</svg>
