<svg id="info_1_" data-name="info (1)" xmlns="http://www.w3.org/2000/svg" width="26.208" height="26.208" viewBox="0 0 26.208 26.208">
  <path id="Path_91" data-name="Path 91" d="M236.852,107.76a1.092,1.092,0,1,1-1.092-1.092A1.092,1.092,0,0,1,236.852,107.76Zm0,0" transform="translate(-222.656 -101.208)" fill="#ff389f"/>
  <path id="Path_92" data-name="Path 92" d="M205.4,202.92a.819.819,0,0,1-.819-.819v-8.463h-1.092a.819.819,0,1,1,0-1.638H205.4a.819.819,0,0,1,.819.819V202.1A.819.819,0,0,1,205.4,202.92Zm0,0" transform="translate(-192.294 -182.172)" fill="#ff389f"/>
  <path id="Path_93" data-name="Path 93" d="M13.1,26.208a13.1,13.1,0,1,1,13.1-13.1A13.118,13.118,0,0,1,13.1,26.208Zm0-24.57A11.466,11.466,0,1,0,24.57,13.1,11.478,11.478,0,0,0,13.1,1.638Zm0,0" fill="#0c50b2"/>
  <path id="Path_94" data-name="Path 94" d="M197.733,374.97h-4.914a.819.819,0,0,1,0-1.638h4.914a.819.819,0,1,1,0,1.638Zm0,0" transform="translate(-182.172 -354.222)" fill="#ff389f"/>
</svg>
