<svg id="instagram" xmlns="http://www.w3.org/2000/svg" width="16.593" height="16.63" viewBox="0 0 16.593 16.63">
  <g id="Group_27" data-name="Group 27" transform="translate(0)">
    <g id="Group_26" data-name="Group 26">
      <path id="Path_36" data-name="Path 36" d="M11.408,0H5.185A5.192,5.192,0,0,0,0,5.2v6.236a5.192,5.192,0,0,0,5.185,5.2h6.223a5.192,5.192,0,0,0,5.185-5.2V5.2A5.192,5.192,0,0,0,11.408,0Zm3.63,11.433a3.638,3.638,0,0,1-3.63,3.638H5.185a3.638,3.638,0,0,1-3.63-3.638V5.2a3.638,3.638,0,0,1,3.63-3.638h6.223A3.638,3.638,0,0,1,15.038,5.2Z" transform="translate(0)" fill="#fff"/>
    </g>
  </g>
  <g id="Group_29" data-name="Group 29" transform="translate(4.148 4.157)">
    <g id="Group_28" data-name="Group 28">
      <path id="Path_37" data-name="Path 37" d="M132.148,128a4.157,4.157,0,1,0,4.148,4.157A4.153,4.153,0,0,0,132.148,128Zm0,6.756a2.6,2.6,0,1,1,2.593-2.6A2.6,2.6,0,0,1,132.148,134.756Z" transform="translate(-128 -128)" fill="#fff"/>
    </g>
  </g>
  <g id="Group_31" data-name="Group 31" transform="translate(12.203 3.292)">
    <g id="Group_30" data-name="Group 30">
      <ellipse id="Ellipse_7" data-name="Ellipse 7" cx="0.553" cy="0.554" rx="0.553" ry="0.554" fill="#fff"/>
    </g>
  </g>
</svg>
