<svg xmlns="http://www.w3.org/2000/svg" width="57.38" height="77.445" viewBox="0 0 57.38 77.445">
  <path id="knee-bones" d="M83.968,23.322,72.529.82A1.5,1.5,0,0,0,70.5.169L39.532,16.261A23.641,23.641,0,0,0,26.75,37.308V75.945a1.5,1.5,0,0,0,1.5,1.5H54.339a1.5,1.5,0,0,0,1.5-1.5V47.605a13.814,13.814,0,0,1,7.71-12.442L83.3,25.346a1.5,1.5,0,0,0,.669-2.023Zm-50.5,6.937c.681-2.847,3.448-4.824,3.761-5.04a1.5,1.5,0,0,1,2.075.367L44.071,32.3a1.5,1.5,0,0,1-.777,2.3l-7.743,2.41a1.5,1.5,0,0,1-1.889-1.022A12.839,12.839,0,0,1,33.467,30.259Zm12.3,18.594V72.944a1.5,1.5,0,0,1-1.5,1.5H38.411a1.5,1.5,0,0,1-1.5-1.5V49.163a5.224,5.224,0,1,1,4.429-9.424,5.405,5.405,0,1,1,4.425,9.115ZM76.231,17.715,54.923,28.164a4.888,4.888,0,1,1-9.489-.2,4.319,4.319,0,1,1,4.722-7.146L72.4,9.909a1.5,1.5,0,0,1,2.008.687l2.506,5.112A1.5,1.5,0,0,1,76.231,17.715Z" transform="translate(-26.75 0)" fill="#fff"/>
</svg>
