<svg xmlns="http://www.w3.org/2000/svg" width="217" height="52.285" viewBox="0 0 217 52.285">
  <g id="Group_4" data-name="Group 4" transform="translate(-248 -34)">
    <g id="Group_2" data-name="Group 2" transform="translate(100.772 -259.719)">
      <path id="Path_7" data-name="Path 7" d="M216.047,306.719h7.829a21.1,21.1,0,0,1,5.239.566,9.629,9.629,0,0,1,3.965,2.124q4.632,3.965,4.633,12.057a23.653,23.653,0,0,1-.465,4.875,14.4,14.4,0,0,1-1.436,3.975,12.363,12.363,0,0,1-2.488,3.166,10.3,10.3,0,0,1-2.61,1.719,11.785,11.785,0,0,1-3.045.911,23.138,23.138,0,0,1-3.671.263h-7.829a4.895,4.895,0,0,1-2.468-.5,2.3,2.3,0,0,1-1.082-1.4,8.86,8.86,0,0,1-.253-2.336V310.4a3.155,3.155,0,0,1,3.682-3.682Zm2.327,4.753V331.6h4.552q1.5,0,2.346-.081a7.28,7.28,0,0,0,1.76-.4,4.792,4.792,0,0,0,1.578-.91q3.013-2.55,3.014-8.78,0-4.39-1.325-6.574a5.9,5.9,0,0,0-3.267-2.782,16.124,16.124,0,0,0-4.693-.6Z" fill="#fff"/>
      <path id="Path_8" data-name="Path 8" d="M288.713,332.429a13.056,13.056,0,0,1-.768,4.552,10.052,10.052,0,0,1-2.226,3.58,9.825,9.825,0,0,1-3.479,2.3,12.312,12.312,0,0,1-4.552.8,11.944,11.944,0,0,1-4.511-.809,9.96,9.96,0,0,1-5.695-5.877,13.017,13.017,0,0,1-.758-4.541,13.175,13.175,0,0,1,.768-4.592,9.99,9.99,0,0,1,2.205-3.561A9.717,9.717,0,0,1,273.177,322a13.165,13.165,0,0,1,9.062.01,9.789,9.789,0,0,1,5.715,5.867A13.105,13.105,0,0,1,288.713,332.429Zm-5.543,0a8.286,8.286,0,0,0-1.487-5.26,4.831,4.831,0,0,0-4-1.881,4.949,4.949,0,0,0-2.852.839,5.317,5.317,0,0,0-1.9,2.478,11.243,11.243,0,0,0-.01,7.606,5.417,5.417,0,0,0,1.881,2.478,4.881,4.881,0,0,0,2.882.86,4.819,4.819,0,0,0,4-1.891A8.259,8.259,0,0,0,283.17,332.429Z" transform="translate(-25.431 -6.775)" fill="#fff"/>
      <path id="Path_9" data-name="Path 9" d="M335.079,336.783a4.759,4.759,0,0,1-.617,2.2,7.565,7.565,0,0,1-1.881,2.236,9.733,9.733,0,0,1-3.186,1.71,13.533,13.533,0,0,1-4.329.647q-5.118,0-7.99-2.983a11.047,11.047,0,0,1-2.873-8,13.177,13.177,0,0,1,1.314-6.008,9.437,9.437,0,0,1,3.8-4.035,12.926,12.926,0,0,1,9.882-.8,10.292,10.292,0,0,1,3.034,1.618,7.771,7.771,0,0,1,1.9,2.114,4.191,4.191,0,0,1,.657,2.094,2.206,2.206,0,0,1-.738,1.679,2.529,2.529,0,0,1-1.79.688,1.8,1.8,0,0,1-1.143-.354,5.588,5.588,0,0,1-1.022-1.143,8.37,8.37,0,0,0-2.114-2.306,5.194,5.194,0,0,0-6.746,1.143,8.271,8.271,0,0,0-1.5,5.229,10.084,10.084,0,0,0,.384,2.863,6.5,6.5,0,0,0,1.113,2.226A4.767,4.767,0,0,0,323,339a5.347,5.347,0,0,0,2.266.475,5.1,5.1,0,0,0,2.842-.769,6.723,6.723,0,0,0,2.094-2.346A5.406,5.406,0,0,1,331.3,334.9a2.077,2.077,0,0,1,1.436-.526,2.132,2.132,0,0,1,1.679.769A2.463,2.463,0,0,1,335.079,336.783Z" transform="translate(-47.642 -6.739)" fill="#fff"/>
      <path id="Path_10" data-name="Path 10" d="M382.741,311.352H369.208v7.282H381.67a2.966,2.966,0,0,1,2.053.617,2.1,2.1,0,0,1,.678,1.628,2.177,2.177,0,0,1-.668,1.649,2.9,2.9,0,0,1-2.063.637H369.208V331.6h14a3.066,3.066,0,0,1,2.134.657,2.257,2.257,0,0,1,.718,1.75,2.21,2.21,0,0,1-.718,1.709,3.063,3.063,0,0,1-2.134.657H366.882a3.145,3.145,0,0,1-3.682-3.682V310.4a5.006,5.006,0,0,1,.384-2.114,2.387,2.387,0,0,1,1.2-1.193,5.058,5.058,0,0,1,2.094-.374h15.859a3.08,3.08,0,0,1,2.135.637,2.154,2.154,0,0,1,.7,1.669,2.177,2.177,0,0,1-.7,1.689A3.083,3.083,0,0,1,382.741,311.352Z" transform="translate(-70.564)" fill="#fff"/>
      <path id="Path_11" data-name="Path 11" d="M433.629,325.247v16.042a16.785,16.785,0,0,1-.587,4.734,7.572,7.572,0,0,1-1.881,3.277,7.885,7.885,0,0,1-3.389,1.922,18.43,18.43,0,0,1-5.208.627,15.149,15.149,0,0,1-5.1-.8,8.8,8.8,0,0,1-3.459-2.063,3.762,3.762,0,0,1-1.214-2.6,2.143,2.143,0,0,1,.688-1.648,2.351,2.351,0,0,1,1.658-.638,2.72,2.72,0,0,1,2.124,1.073q.445.546.92,1.1a5.377,5.377,0,0,0,1.052.95,4.105,4.105,0,0,0,1.386.587,8.087,8.087,0,0,0,1.861.192,7.539,7.539,0,0,0,3.328-.6,3.41,3.41,0,0,0,1.659-1.669,6.738,6.738,0,0,0,.556-2.3q.08-1.223.122-3.934a9.082,9.082,0,0,1-2.944,2.71,8.039,8.039,0,0,1-3.975.931,8.377,8.377,0,0,1-4.845-1.416,9.036,9.036,0,0,1-3.186-3.965,14.6,14.6,0,0,1-1.113-5.887,13.958,13.958,0,0,1,.678-4.491,9.423,9.423,0,0,1,1.932-3.378,8.269,8.269,0,0,1,2.893-2.073,9.1,9.1,0,0,1,3.6-.7,8.659,8.659,0,0,1,4.066.9,9.9,9.9,0,0,1,3.2,2.822v-.748a3.212,3.212,0,0,1,.709-2.225,2.334,2.334,0,0,1,1.82-.789,2.147,2.147,0,0,1,2.124,1.042A6.845,6.845,0,0,1,433.629,325.247Zm-16,7a7.64,7.64,0,0,0,1.467,5.078,4.753,4.753,0,0,0,3.793,1.719,4.948,4.948,0,0,0,2.6-.739,5.419,5.419,0,0,0,1.992-2.225,7.786,7.786,0,0,0,.769-3.611,8.288,8.288,0,0,0-1.487-5.26,4.746,4.746,0,0,0-3.914-1.881,4.6,4.6,0,0,0-3.793,1.8A8.07,8.07,0,0,0,417.627,332.246Z" transform="translate(-93.434 -6.775)" fill="#fff"/>
      <path id="Path_12" data-name="Path 12" d="M466.007,344.344l.506-1.234L459.715,326a6.4,6.4,0,0,1-.627-2.144,2.512,2.512,0,0,1,.364-1.315,2.712,2.712,0,0,1,1-.971,2.635,2.635,0,0,1,1.325-.365,2.17,2.17,0,0,1,1.8.759,7.018,7.018,0,0,1,1.072,2.174l4.672,13.594,4.43-12.643a21.709,21.709,0,0,1,.951-2.407,2.838,2.838,0,0,1,.9-1.174,2.5,2.5,0,0,1,1.345-.3,2.37,2.37,0,0,1,1.2.334,2.339,2.339,0,0,1,.89.9,2.43,2.43,0,0,1,.313,1.193q-.081.384-.263,1.092t-.445,1.437l-7.2,18.853a21.964,21.964,0,0,1-1.821,3.9,5.985,5.985,0,0,1-2.356,2.174,8.672,8.672,0,0,1-3.955.759,9.627,9.627,0,0,1-3.642-.526,1.92,1.92,0,0,1-1.213-1.922,1.863,1.863,0,0,1,.576-1.466,2.488,2.488,0,0,1,1.709-.516,3.158,3.158,0,0,1,.87.121,4.127,4.127,0,0,0,.91.121,3.294,3.294,0,0,0,1.5-.283,2.62,2.62,0,0,0,.981-.981A15.063,15.063,0,0,0,466.007,344.344Z" transform="translate(-115.13 -6.775)" fill="#fff"/>
    </g>
    <g id="doctor_3_" data-name="doctor (3)" transform="translate(228.634 35)">
      <g id="Group_3" data-name="Group 3" transform="translate(20.366)">
        <path id="Path_13" data-name="Path 13" d="M65.037,4.631,59.374,2.655V1.931a1.931,1.931,0,0,0-3.863,0V7a1.931,1.931,0,1,0,3.863,0V6.747l3.414,1.191v1.61a13.611,13.611,0,0,1-27.222,0V7.906l3.4-1.185v.295a1.931,1.931,0,0,0,3.863,0V1.947a1.931,1.931,0,0,0-3.863,0V2.63L33,4.71l-.042.017c-.038.014-.077.029-.114.046l-.071.034c-.031.016-.063.032-.093.049s-.055.032-.081.049l-.073.048c-.029.021-.058.042-.086.064l-.06.049c-.028.024-.055.049-.082.074l-.054.054c-.025.026-.049.052-.072.079s-.036.043-.053.065-.039.051-.058.077-.036.052-.053.079-.03.048-.044.073-.034.061-.05.092-.023.046-.034.07-.029.066-.043.1-.018.049-.027.074-.022.067-.032.1-.015.057-.022.086-.014.061-.02.092-.011.07-.016.1-.007.052-.009.078-.005.082-.006.123c0,.015,0,.03,0,.045V9.547a17.5,17.5,0,0,0,15.575,17.37V37.33A9.092,9.092,0,0,1,29.2,38.725a6.788,6.788,0,1,0-3.887.062A12.955,12.955,0,0,0,51.142,37.33V26.909A17.5,17.5,0,0,0,66.65,9.547V6.534A1.93,1.93,0,0,0,65.037,4.631Z" transform="translate(-20.366)" fill="#fff" stroke="#fff" stroke-width="2"/>
      </g>
    </g>
  </g>
</svg>
