<svg xmlns="http://www.w3.org/2000/svg" width="80.991" height="77.81" viewBox="0 0 80.991 77.81">
  <path id="lungs-with-bronchi-" d="M76.975,35.978C70.585,22.01,62.639,13.67,55.719,13.67a7.125,7.125,0,0,0-3.794,1.044c-5.6,3.447-5.856,14.211-5.866,15.4-.01.372-.087,3.343-.15,7.483l-2.263-.832V5.628A1.567,1.567,0,0,0,42.08,4.061H38.91a1.567,1.567,0,0,0-1.567,1.567V36.766L35.08,37.6c-.063-4.132-.14-7.092-.15-7.456-.011-1.216-.266-11.981-5.867-15.428A7.124,7.124,0,0,0,25.27,13.67c-6.919,0-14.866,8.339-21.255,22.308-8.459,18.492-.977,43.716-.654,44.781a1.565,1.565,0,0,0,1.863,1.07,138.256,138.256,0,0,0,13.714-4.147c9.79-3.574,14.856-7.085,15.488-10.734.777-4.483.8-16.851.7-26.028L39.4,39.347h2.189l4.275,1.573c-.1,9.182-.077,21.546.7,26.028.632,3.649,5.7,7.16,15.488,10.734a138.378,138.378,0,0,0,13.714,4.147,1.565,1.565,0,0,0,1.863-1.07C77.951,79.694,85.434,54.47,76.975,35.978ZM30.587,43.007,19.43,48.772v4.682l.851,2.6,2.134,2.065a1.567,1.567,0,0,1-2.179,2.251l-2.3-2.225-2.606,2.876a1.567,1.567,0,0,1-2.322-2.1L16.3,55.29v-4.9l-6.155,3.18A1.567,1.567,0,1,1,8.7,50.787l1.372-.709L7.622,48.122a1.566,1.566,0,0,1,1.953-2.449l3.549,2.83,8.583-4.435-7.36-5.578a1.567,1.567,0,0,1,1.892-2.5l2.376,1.8.2-1.816a1.567,1.567,0,0,1,3.114.344L21.525,40l3.268,2.476,4.357-2.251a1.566,1.566,0,1,1,1.438,2.783Zm42.78,5.115-2.453,1.957,1.371.709a1.567,1.567,0,1,1-1.438,2.784l-6.155-3.18v4.9l3.287,3.628a1.567,1.567,0,0,1-2.322,2.1l-2.606-2.876-2.3,2.225a1.566,1.566,0,1,1-2.179-2.251l2.134-2.065.851-2.6V48.772L50.4,43.008a1.567,1.567,0,1,1,1.438-2.784L56.2,42.475,59.464,40l-.406-3.676a1.567,1.567,0,1,1,3.114-.344l.2,1.816,2.376-1.8a1.567,1.567,0,1,1,1.892,2.5L59.28,44.069,67.863,48.5l3.549-2.831a1.567,1.567,0,0,1,1.954,2.449Z" transform="translate(0.001 -4.061)" fill="#fff"/>
</svg>
