<svg xmlns="http://www.w3.org/2000/svg" width="18.245" height="18.203" viewBox="0 0 18.245 18.203">
  <g id="call-answer" transform="translate(0 -0.394)">
    <g id="Group_393" data-name="Group 393" transform="translate(0 0.394)">
      <g id="Group_392" data-name="Group 392">
        <path id="Path_105" data-name="Path 105" d="M17.835,14.791l-2.818-2.818a1.469,1.469,0,0,0-2.071.039l-1.42,1.419-.28-.156a14.126,14.126,0,0,1-3.414-2.469,14.2,14.2,0,0,1-2.474-3.42c-.053-.1-.1-.187-.153-.274l.953-.951.468-.469a1.468,1.468,0,0,0,.038-2.071L3.846.8A1.468,1.468,0,0,0,1.775.841l-.794.8L1,1.662A4.592,4.592,0,0,0,.348,2.816,4.785,4.785,0,0,0,.057,3.987c-.372,3.084,1.037,5.9,4.862,9.728C10.207,19,14.468,18.6,14.652,18.583a4.761,4.761,0,0,0,1.174-.295,4.576,4.576,0,0,0,1.15-.652l.017.015.8-.788A1.47,1.47,0,0,0,17.835,14.791Z" transform="translate(0 -0.394)" fill="#ff389f"/>
      </g>
    </g>
  </g>
</svg>
