<svg xmlns="http://www.w3.org/2000/svg" width="35.511" height="30.606" viewBox="0 0 35.511 30.606">
  <g id="outbound" transform="translate(0 -35.365)">
    <g id="Group_423" data-name="Group 423" transform="translate(0 38.074)">
      <path id="Path_134" data-name="Path 134" d="M27.642,98.362a8.3,8.3,0,0,1-8.867,3.757,24.823,24.823,0,0,1-11.73-6.847A24.824,24.824,0,0,1,.2,83.542a8.3,8.3,0,0,1,3.757-8.867,1.711,1.711,0,0,1,2.108.247l4.164,4.164a1.711,1.711,0,0,1-.312,2.666L8.214,82.8a1.71,1.71,0,0,0-.684,2.108,18.153,18.153,0,0,0,9.886,9.883,1.707,1.707,0,0,0,2.1-.687l1.049-1.7a1.711,1.711,0,0,1,2.666-.312L27.4,96.253a1.711,1.711,0,0,1,.247,2.108Z" transform="translate(0 -74.42)" fill="#0c50b2"/>
      <g id="Group_422" data-name="Group 422" transform="translate(2.961 0)">
        <path id="Path_135" data-name="Path 135" d="M300.542,328.736h0a1.711,1.711,0,0,0-.247-2.108l-4.163-4.163a1.711,1.711,0,0,0-2.666.312l-.228.37h0l6.583,6.583A8.343,8.343,0,0,0,300.542,328.736Z" transform="translate(-275.861 -304.794)" fill="#073f90"/>
        <path id="Path_136" data-name="Path 136" d="M49.278,81.979h0l.37-.228a1.711,1.711,0,0,0,.312-2.666L45.8,74.921a1.711,1.711,0,0,0-2.108-.247,8.335,8.335,0,0,0-.994.72Z" transform="translate(-42.694 -74.42)" fill="#073f90"/>
      </g>
    </g>
    <path id="Path_137" data-name="Path 137" d="M228.98,41.507l-5.844-5.844a1.01,1.01,0,0,0-1.723.714v1.468a.6.6,0,0,1-.61.605h-.167A12.2,12.2,0,0,0,208.593,52.59,8.078,8.078,0,0,1,221.152,47a.6.6,0,0,1,.26.5v1.61a1.01,1.01,0,0,0,1.723.714l5.844-5.844a1.75,1.75,0,0,0,0-2.475Z" transform="translate(-193.981)" fill="#ff389f"/>
    <g id="Group_424" data-name="Group 424" transform="translate(27.462 35.365)">
      <path id="Path_138" data-name="Path 138" d="M403.476,41.507l-5.844-5.844a1.011,1.011,0,0,0-1.693.463l5.381,5.381a1.75,1.75,0,0,1,0,2.475l-5.381,5.381a1.011,1.011,0,0,0,1.693.463l5.844-5.844A1.75,1.75,0,0,0,403.476,41.507Z" transform="translate(-395.939 -35.365)" fill="#dd1d81"/>
    </g>
  </g>
</svg>
