<svg xmlns="http://www.w3.org/2000/svg" width="23.363" height="22.108" viewBox="0 0 23.363 22.108">
  <g id="qa" transform="translate(0 -13.754)">
    <path id="Path_102" data-name="Path 102" d="M20.854,21.542H13.631V13.754H2.51A2.513,2.513,0,0,0,0,16.264v9.567H5.877l3.867,1.657v6.131h2.52v2.243L17.5,33.619h5.866V24.051A2.513,2.513,0,0,0,20.854,21.542ZM9.742,26,6.158,24.462H1.369v-8.2A1.142,1.142,0,0,1,2.51,15.123h9.752v9.339H9.742Zm3.89,7.788V32.25h-2.52V25.831h2.518v-2.92h7.223a1.142,1.142,0,0,1,1.141,1.141v8.2H17.216Z" fill="#0c50b2"/>
    <path id="Path_103" data-name="Path 103" d="M300.774,243.124l-2.365,6.208,1.279.487.562-1.476h2.193l.557,1.475,1.281-.483-2.344-6.212Zm0,3.851.58-1.524.575,1.524Z" transform="translate(-284.792 -218.903)" fill="#ff389f"/>
    <path id="Path_104" data-name="Path 104" d="M77.206,77.056l-.818-.818a3.288,3.288,0,1,0-.959.977l.809.809Zm-3.589-.663a1.917,1.917,0,1,1,1.762-1.163l-.805-.805-.968.968.821.821A1.9,1.9,0,0,1,73.617,76.393Z" transform="translate(-67.123 -54.816)" fill="#ff389f"/>
  </g>
</svg>
