<svg id="stethoscope" xmlns="http://www.w3.org/2000/svg" width="120.116" height="94.61" viewBox="0 0 120.116 94.61">
  <g id="Group_253" data-name="Group 253" transform="translate(0 19.461)">
    <path id="Path_50" data-name="Path 50" d="M22.205,235.495,2.338,215.628C.05,213.34-.157,211.177.073,209.765c.617-3.8,4.858-6.02,5.34-6.261a1.968,1.968,0,1,1,1.76,3.52c-.753.383-2.971,1.83-3.217,3.377-.043.273-.176,1.1,1.165,2.445l19.868,19.867Z" transform="translate(-0.001 -185.512)" fill="#324654"/>
    <path id="Path_51" data-name="Path 51" d="M101.719,155.972,81.851,136.1c-1.343-1.342-2.175-1.209-2.451-1.165-1.594.259-3.064,2.6-3.371,3.217a1.968,1.968,0,1,1-3.521-1.76c.241-.481,2.463-4.725,6.261-5.341,1.414-.23,3.576-.021,5.863,2.267L104.5,153.189Z" transform="translate(-54.52 -130.984)" fill="#324654"/>
  </g>
  <ellipse id="Ellipse_19" data-name="Ellipse 19" cx="46.892" cy="11.621" rx="46.892" ry="11.621" transform="translate(16.825 71.368)" fill="#c0d7f8"/>
  <g id="Group_254" data-name="Group 254" transform="translate(21.284 0)">
    <path id="Path_52" data-name="Path 52" d="M216.268,138.52a21.22,21.22,0,0,1-15-6.271l-9.613-9.613a2.951,2.951,0,1,1,4.174-4.173l9.614,9.612c5.85,5.849,15.136,6.084,20.7.523a13.8,13.8,0,0,0,4.032-10.267,15.354,15.354,0,0,0-4.551-10.437L204.468,86.745a19.777,19.777,0,0,1-5.841-14.5,20.864,20.864,0,0,1,6.2-14.382,20.572,20.572,0,0,1,29.064,0L253.119,77.1a2.951,2.951,0,0,1-4.173,4.173L229.713,62.038a14.668,14.668,0,0,0-20.718,0,14.994,14.994,0,0,0-4.468,10.325,13.926,13.926,0,0,0,4.114,10.208l21.149,21.15a21.229,21.229,0,0,1,6.277,14.44,19.664,19.664,0,0,1-19.8,20.358Z" transform="translate(-165.149 -51.855)" fill="#324654"/>
    <path id="Path_53" data-name="Path 53" d="M102.4,253.708l-.271,0a21.038,21.038,0,0,1-14.725-6.132,2.951,2.951,0,0,1,4.173-4.173,15.374,15.374,0,0,0,10.623,4.4,14.547,14.547,0,0,0,10.551-4.178,14.245,14.245,0,0,0,4.115-10.467,15.506,15.506,0,0,0-4.467-10.58,2.951,2.951,0,1,1,4.173-4.173,21.164,21.164,0,0,1,6.2,14.64,20.1,20.1,0,0,1-5.842,14.753A20.338,20.338,0,0,1,102.4,253.708Z" transform="translate(-86.545 -176.793)" fill="#324654"/>
  </g>
  <ellipse id="Ellipse_20" data-name="Ellipse 20" cx="9.997" cy="9.997" rx="9.997" ry="9.997" transform="translate(97.173 17.332)" fill="#c0d7f8"/>
  <g id="Group_255" data-name="Group 255" transform="translate(3.086 14.381)">
    <path id="Path_54" data-name="Path 54" d="M396.054,136.226A12.948,12.948,0,1,1,409,123.279,12.962,12.962,0,0,1,396.054,136.226Zm0-19.994a7.046,7.046,0,1,0,7.046,7.046A7.054,7.054,0,0,0,396.054,116.232Z" transform="translate(-291.972 -110.33)" fill="#324654"/>
    <ellipse id="Ellipse_21" data-name="Ellipse 21" cx="2.947" cy="2.947" rx="2.947" ry="2.947" transform="translate(101.136 10)" fill="#324654"/>
    <ellipse id="Ellipse_22" data-name="Ellipse 22" cx="2.719" cy="3.172" rx="2.719" ry="3.172" transform="translate(3.845 28.031) rotate(-135)" fill="#324654"/>
    <ellipse id="Ellipse_23" data-name="Ellipse 23" cx="2.719" cy="3.173" rx="2.719" ry="3.173" transform="translate(14.738 17.145) rotate(-135)" fill="#324654"/>
  </g>
</svg>
