<svg xmlns="http://www.w3.org/2000/svg" width="25.338" height="25.337" viewBox="0 0 25.338 25.337">
  <g id="tag_1_" data-name="tag (1)" transform="translate(0 0.001)">
    <path id="Path_95" data-name="Path 95" d="M22.611,0H12.995a.742.742,0,0,0-.525.217L.8,11.889a2.731,2.731,0,0,0,0,3.857L9.592,24.54a2.709,2.709,0,0,0,1.928.8h0a2.709,2.709,0,0,0,1.929-.8L25.121,12.867a.742.742,0,0,0,.217-.525V2.726A2.731,2.731,0,0,0,22.611,0Zm1.243,12.036L12.4,23.49a1.249,1.249,0,0,1-1.758,0L1.847,14.7a1.245,1.245,0,0,1,0-1.758L13.3,1.484h9.309a1.244,1.244,0,0,1,1.243,1.243Zm0,0" transform="translate(0)" fill="#0c50b2"/>
    <path id="Path_96" data-name="Path 96" d="M334.985,85.078a2.332,2.332,0,1,0,1.649.683A2.318,2.318,0,0,0,334.985,85.078Zm.6,2.932a.848.848,0,1,1,.248-.6A.842.842,0,0,1,335.584,88.01Zm0,0" transform="translate(-316.189 -80.868)" fill="#ff389f"/>
  </g>
</svg>
