<svg xmlns="http://www.w3.org/2000/svg" width="69.139" height="69.713" viewBox="0 0 69.139 69.713">
  <path id="teeth" d="M69.828,17.353C69.828,8.729,63.835,0,52.38,0A52.046,52.046,0,0,0,39.22,1.636a15.569,15.569,0,0,1-7.923,0A52.042,52.042,0,0,0,18.137,0C6.682,0,.689,8.729.689,17.353c0,6.653,4.178,11.438,5.852,13.088A62.8,62.8,0,0,0,8.2,49.879c1.773,7.407,5.67,19.834,11.854,19.834,3.716,0,5.188-5.988,6.892-12.921a47.374,47.374,0,0,1,2.166-7.345,8.7,8.7,0,0,1,.606-1.061,6.723,6.723,0,0,1,11.09,0,8.7,8.7,0,0,1,.606,1.061,47.367,47.367,0,0,1,2.166,7.345c1.7,6.934,3.177,12.921,6.892,12.921,6.184,0,10.082-12.427,11.855-19.834A62.8,62.8,0,0,0,63.976,30.44C65.651,28.79,69.828,24.006,69.828,17.353ZM45.349,16.074A1.665,1.665,0,1,1,43.177,18.6a40.4,40.4,0,0,0-7.918-5.375A40.381,40.381,0,0,0,27.341,18.6a1.665,1.665,0,0,1-2.172-2.525,45.469,45.469,0,0,1,6.24-4.53,21.173,21.173,0,0,0-5.243-1.288,1.665,1.665,0,0,1,.173-3.326,26.626,26.626,0,0,1,8.921,2.58A26.626,26.626,0,0,1,44.18,6.93a1.665,1.665,0,0,1,.172,3.326,21.216,21.216,0,0,0-5.243,1.288A45.457,45.457,0,0,1,45.349,16.074Z" transform="translate(-0.689)" fill="#fff"/>
</svg>
