<svg xmlns="http://www.w3.org/2000/svg" width="20.826" height="16.958" viewBox="0 0 20.826 16.958">
  <g id="twitter" transform="translate(0 0)">
    <g id="Group_38" data-name="Group 38" transform="translate(0 0)">
      <path id="Path_39" data-name="Path 39" d="M20.826,50.008a8.886,8.886,0,0,1-2.46.676,4.253,4.253,0,0,0,1.878-2.365,8.521,8.521,0,0,1-2.707,1.036,4.267,4.267,0,0,0-7.385,2.926,4.415,4.415,0,0,0,.1.976,12.076,12.076,0,0,1-8.8-4.476A4.286,4.286,0,0,0,2.762,54.5a4.209,4.209,0,0,1-1.929-.527v.047a4.3,4.3,0,0,0,3.421,4.2,4.253,4.253,0,0,1-1.119.141,3.767,3.767,0,0,1-.808-.073,4.311,4.311,0,0,0,3.989,2.981A8.567,8.567,0,0,1,1.022,63.1,7.981,7.981,0,0,1,0,63.038a12,12,0,0,0,6.55,1.92A12.082,12.082,0,0,0,18.7,52.782c0-.189-.007-.372-.016-.553A8.528,8.528,0,0,0,20.826,50.008Z" transform="translate(0 -48)" fill="#fff"/>
    </g>
  </g>
</svg>
